<svg width="116" height="93" viewBox="0 0 116 93" fill="none" xmlns="http://www.w3.org/2000/svg">
<path d="M97.44 41.1598C98.1831 39.2162 98.6 37.091 98.6 34.875C98.6 25.248 90.8063 17.4375 81.2 17.4375C77.6294 17.4375 74.2944 18.5273 71.5394 20.3801C66.5188 11.6613 57.1481 5.8125 46.4 5.8125C30.3775 5.8125 17.4 18.818 17.4 34.875C17.4 35.3654 17.4181 35.8559 17.4363 36.3463C7.28625 39.9246 0 49.6242 0 61.0312C0 75.4717 11.6906 87.1875 26.1 87.1875H92.8C105.614 87.1875 116 76.7795 116 63.9375C116 52.6939 108.025 43.3031 97.44 41.1598ZM73.3519 57.2713L54.2481 76.4162C53.1244 77.5424 51.2756 77.5424 50.1519 76.4162L31.0481 57.2713C29.2175 55.4367 30.5225 52.3125 33.0963 52.3125H44.95V31.9688C44.95 30.3703 46.255 29.0625 47.85 29.0625H56.55C58.145 29.0625 59.45 30.3703 59.45 31.9688V52.3125H71.3038C73.8775 52.3125 75.1825 55.4367 73.3519 57.2713V57.2713Z" fill="#32E7A6"/>
</svg>
